<svg viewBox="0 0 77.33 71.99" xmlns="http://www.w3.org/2000/svg"><g transform="translate(-11.33 -14.01)"><path d="m79.83 14.06-59.66 6.59a10.12 10.12 0 0 0 -8.83 9.81 7.76 7.76 0 0 0 8.83 7.86l59.67-6.59a10.12 10.12 0 0 0 8.83-9.81 7.76 7.76 0 0 0 -8.84-7.86z"/><path d="m79.83 37.87-59.66 6.59a10.12 10.12 0 0 0 -8.83 9.81 7.76 7.76 0 0 0 8.83 7.86l59.67-6.59a10.12 10.12 0 0 0 8.83-9.81 7.76 7.76 0 0 0 -8.84-7.86z"/><path d="m79.83 61.68-59.66 6.59a10.12 10.12 0 0 0 -8.83 9.81 7.76 7.76 0 0 0 8.83 7.86l59.67-6.59a10.12 10.12 0 0 0 8.83-9.81 7.76 7.76 0 0 0 -8.84-7.86z"/></g></svg>