<svg xmlns="http://www.w3.org/2000/svg" data-name="Livello 1" viewBox="0 0 77.33 71.99" x="0px" y="0px"><title>menu6</title><path d="M79.83,14.06,20.17,20.65a10.12,10.12,0,0,0-8.83,9.81h0a7.76,7.76,0,0,0,8.83,7.86l59.67-6.59a10.12,10.12,0,0,0,8.83-9.81h0A7.76,7.76,0,0,0,79.83,14.06Z" transform="translate(-11.33 -14.01)"></path><path d="M79.83,37.87,20.17,44.46a10.12,10.12,0,0,0-8.83,9.81,7.76,7.76,0,0,0,8.83,7.86l59.67-6.59a10.12,10.12,0,0,0,8.83-9.81A7.76,7.76,0,0,0,79.83,37.87Z" transform="translate(-11.33 -14.01)"></path><path d="M79.83,61.68,20.17,68.27a10.12,10.12,0,0,0-8.83,9.81,7.76,7.76,0,0,0,8.83,7.86l59.67-6.59a10.12,10.12,0,0,0,8.83-9.81A7.76,7.76,0,0,0,79.83,61.68Z" transform="translate(-11.33 -14.01)"></path></svg>