<svg xmlns="http://www.w3.org/2000/svg" data-name="Livello 1" viewBox="0 0 77.33 71.99">
  <path d="M68.5.05L8.84 6.64a10.12 10.12 0 00-8.83 9.81 7.76 7.76 0 008.83 7.86l59.67-6.59a10.12 10.12 0 008.83-9.81A7.76 7.76 0 0068.5.05zM68.5 23.86L8.84 30.45a10.12 10.12 0 00-8.83 9.81 7.76 7.76 0 008.83 7.86l59.67-6.59a10.12 10.12 0 008.83-9.81 7.76 7.76 0 00-8.84-7.86zM68.5 47.67L8.84 54.26a10.12 10.12 0 00-8.83 9.81 7.76 7.76 0 008.83 7.86l59.67-6.59a10.12 10.12 0 008.83-9.81 7.76 7.76 0 00-8.84-7.86z"/>
</svg>
